<svg width="128" height="28" viewBox="0 0 128 28" fill="none" xmlns="http://www.w3.org/2000/svg">
<path fill-rule="evenodd" clip-rule="evenodd" d="M19.7441 13.5521C20.471 12.2281 20.8345 10.7742 20.8345 9.19052C20.8345 7.47702 20.458 5.95825 19.7051 4.63419C18.9523 3.31013 17.8229 2.27165 16.3171 1.51875C14.8113 0.765852 12.968 0.389404 10.7872 0.389404H0V27.7274H6.65925V17.9137H10.7872C13.0199 17.9137 14.8892 17.5113 16.395 16.7065C17.9008 15.9017 19.0172 14.8502 19.7441 13.5521ZM13.1238 11.7218C12.5007 12.3189 11.5531 12.6175 10.2809 12.6175H6.65925V5.76354H10.2809C11.5531 5.76354 12.5007 6.0621 13.1238 6.65922C13.7469 7.25635 14.0584 8.10011 14.0584 9.19052C14.0584 10.2809 13.7469 11.1247 13.1238 11.7218Z" fill="#0059C6"/>
<path d="M86.5347 0.389404L79.4081 27.7274H71.3469L66.9853 9.73572L62.4679 27.7274H54.4067L47.4749 0.389404H54.6015L58.5347 20.2893L63.4026 0.389404H70.7239L75.397 20.2893L79.3692 0.389404H86.5347Z" fill="#0059C6"/>
<path d="M94.5335 5.72459V11.2545H103.451V16.395H94.5335V22.3922H104.62V27.7274H87.8743V0.389404H104.62V5.72459H94.5335Z" fill="#0059C6"/>
<path fill-rule="evenodd" clip-rule="evenodd" d="M114.199 17.4075L119.885 27.7274H127.401L121.092 16.9012C123.091 16.3041 124.597 15.2916 125.609 13.8637C126.648 12.4358 127.167 10.8131 127.167 8.9958C127.167 7.38616 126.79 5.93229 126.038 4.63419C125.285 3.31013 124.142 2.27165 122.611 1.51875C121.105 0.765852 119.275 0.389404 117.12 0.389404H105.943V27.7274H112.602V17.4075H114.199ZM116.73 12.6954H112.602V5.91931H116.73C117.95 5.91931 118.859 6.21787 119.456 6.815C120.079 7.41212 120.391 8.22992 120.391 9.2684C120.391 10.3588 120.079 11.2026 119.456 11.7997C118.859 12.3968 117.95 12.6954 116.73 12.6954Z" fill="#0059C6"/>
<path fill-rule="evenodd" clip-rule="evenodd" d="M28.1427 26.2086C30.2975 27.4029 32.6601 28 35.2303 28C37.8005 28 40.1501 27.4029 42.279 26.2086C44.4079 25.0144 46.0954 23.3528 47.3416 21.2239C48.5877 19.0691 49.2108 16.6546 49.2108 13.9805C49.2108 11.3064 48.5877 8.90496 47.3416 6.77608C46.1213 4.64719 44.4338 2.98563 42.279 1.79138C40.1501 0.597126 37.8005 0 35.2303 0C32.6601 0 30.2975 0.597126 28.1427 1.79138C26.0138 2.98563 24.3133 4.64719 23.0411 6.77608C21.795 8.90496 21.1719 11.3064 21.1719 13.9805C21.1719 16.6546 21.795 19.0691 23.0411 21.2239C24.3133 23.3528 26.0138 25.0144 28.1427 26.2086ZM35.8952 24.7753C39.711 23.172 43.8801 18.2102 43.8801 14.0492C43.8801 9.23658 39.9572 5.33514 35.1179 5.33514C30.2787 5.33514 26.3558 9.23658 26.3558 14.0492C26.3558 18.8619 30.2787 22.7633 35.1179 22.7633C35.4307 22.7633 35.4449 23.2961 35.4588 23.8175C35.474 24.3885 35.4889 24.9461 35.8952 24.7753Z" fill="#0059C6"/>
</svg>
